<svg width="100" height="100" viewBox="-100 -100 400 400" xmlns="http://www.w3.org/2000/svg">
  <g transform="translate(100, 100)">
    <defs>
      <path id="petal" d="M 20 50 Q 100 0, 160 50 Q 100 100, 20 50 Z" />
    </defs>

    <!-- Outer petals -->
    <g fill= "rgb(30,159,94)">
      <use href="#petal" transform="rotate(0) translate(0,-50)" />
      <use href="#petal" transform="rotate(22.5) translate(0,-50)" />
      <use href="#petal" transform="rotate(45) translate(0,-50)" />
      <use href="#petal" transform="rotate(67.5) translate(0,-50)" />
      <use href="#petal" transform="rotate(90) translate(0,-50)" />
      <use href="#petal" transform="rotate(112.5) translate(0,-50)" />
      <use href="#petal" transform="rotate(135) translate(0,-50)" />
      <use href="#petal" transform="rotate(157.5) translate(0,-50)" />
      <use href="#petal" transform="rotate(180) translate(0,-50)" />
      <use href="#petal" transform="rotate(202.5) translate(0,-50)" />
      <use href="#petal" transform="rotate(225) translate(0,-50)" />
      <use href="#petal" transform="rotate(247.5) translate(0,-50)" />
      <use href="#petal" transform="rotate(270) translate(0,-50)" />
      <use href="#petal" transform="rotate(292.5) translate(0,-50)" />
      <use href="#petal" transform="rotate(315) translate(0,-50)" />
      <use href="#petal" transform="rotate(337.5) translate(0,-50)" />
    </g>

    <!-- Inner petals -->
    <g fill="rgb(2, 51, 22)" fill-opacity="0.85">
      <use href="#petal" transform="rotate(11.25) scale(0.85) translate(-20,-50)" />
      <use href="#petal" transform="rotate(33.75) scale(0.85) translate(-20,-50)" />
      <use href="#petal" transform="rotate(56.25) scale(0.85) translate(-20,-50)" />
      <use href="#petal" transform="rotate(78.75) scale(0.85) translate(-20,-50)" />
      <use href="#petal" transform="rotate(101.25) scale(0.85) translate(-20,-50)" />
      <use href="#petal" transform="rotate(123.75) scale(0.85) translate(-20,-50)" />
      <use href="#petal" transform="rotate(146.25) scale(0.85) translate(-20,-50)" />
      <use href="#petal" transform="rotate(168.75) scale(0.85) translate(-20,-50)" />
      <use href="#petal" transform="rotate(191.25) scale(0.85) translate(-20,-50)" />
      <use href="#petal" transform="rotate(213.75) scale(0.85) translate(-20,-50)" />
      <use href="#petal" transform="rotate(236.25) scale(0.85) translate(-20,-50)" />
      <use href="#petal" transform="rotate(258.75) scale(0.85) translate(-20,-50)" />
      <use href="#petal" transform="rotate(281.25) scale(0.85) translate(-20,-50)" />
      <use href="#petal" transform="rotate(303.75) scale(0.85) translate(-20,-50)" />
      <use href="#petal" transform="rotate(326.25) scale(0.85) translate(-20,-50)" />
      <use href="#petal" transform="rotate(348.75) scale(0.85) translate(-20,-50)" />
    </g>
  </g>
</svg>